<svg width="19" height="19" viewBox="0 0 19 19" fill="none" xmlns="http://www.w3.org/2000/svg">
<path fill-rule="evenodd" clip-rule="evenodd" d="M18.5795 0H0.566406V18.0131H18.5795V0ZM15.6118 9.01515C15.6118 14.0318 15.1986 14.9155 11.0007 15.0368C10.9675 14.989 10.9529 14.9311 10.9529 14.8763C10.9529 14.8184 10.9534 14.6121 10.9544 14.3358C10.9564 13.7777 10.9594 12.9358 10.9594 12.4598C10.9594 11.9631 10.7838 11.638 10.5865 11.4734C11.8109 11.3421 13.0956 10.8917 13.0956 8.84607C13.0956 8.26484 12.8827 7.78979 12.5305 7.41739C12.5874 7.28252 12.7761 6.74105 12.4761 6.00835C12.4761 6.00835 12.0157 5.86493 10.9665 6.55385C10.5271 6.43559 10.0571 6.37671 9.59062 6.3747C9.12312 6.37671 8.65311 6.43559 8.21479 6.55385C7.16507 5.86493 6.70361 6.00835 6.70361 6.00835C6.40469 6.74105 6.5929 7.28252 6.64977 7.41739C6.29851 7.78979 6.08414 8.26484 6.08414 8.84607C6.08414 10.8867 7.36687 11.3436 8.58718 11.478C8.43018 11.6108 8.28827 11.8458 8.23845 12.1895C7.92545 12.3259 7.12934 12.5609 6.6392 11.7472C6.6392 11.7472 6.34883 11.2359 5.79729 11.1982C5.79729 11.1982 5.26085 11.1916 5.75955 11.5217C5.75955 11.5217 6.11986 11.6858 6.36997 12.3007C6.36997 12.3007 6.69254 13.3364 8.22083 13.0148C8.22335 13.4592 8.22838 14.7505 8.22838 14.8763C8.22838 14.9346 8.21479 14.992 8.17806 15.0378C3.94994 14.92 3.53427 14.0449 3.53427 9.01515C3.53427 3.47962 4.0375 2.97639 9.57301 2.97639C15.1085 2.97639 15.6118 3.47962 15.6118 9.01515Z" fill="#F8F8F8"/>
</svg>
