<svg width="19" height="19" viewBox="0 0 19 19" fill="none" xmlns="http://www.w3.org/2000/svg">
<path d="M9.93117 7.21545C8.94382 7.21545 8.13986 8.01901 8.13986 9.00637C8.13986 9.99412 8.94382 10.7981 9.93117 10.7981C10.9189 10.7981 11.7225 9.99412 11.7225 9.00637C11.7225 8.01901 10.9189 7.21545 9.93117 7.21545ZM9.93117 7.21545C8.94382 7.21545 8.13986 8.01901 8.13986 9.00637C8.13986 9.99412 8.94382 10.7981 9.93117 10.7981C10.9189 10.7981 11.7225 9.99412 11.7225 9.00637C11.7225 8.01901 10.9189 7.21545 9.93117 7.21545ZM12.9154 4.29488H6.94736C5.99479 4.29488 5.21969 5.06999 5.21969 6.02256V11.9906C5.21969 12.9431 5.99479 13.7183 6.94736 13.7183H12.9154C13.868 13.7183 14.6431 12.9431 14.6431 11.9906V6.02256C14.6431 5.06999 13.868 4.29488 12.9154 4.29488ZM9.93117 12.1088C8.22089 12.1088 6.82918 10.717 6.82918 9.00637C6.82918 7.29608 8.22089 5.90438 9.93117 5.90438C11.6419 5.90438 13.0336 7.29608 13.0336 9.00637C13.0336 10.717 11.6419 12.1088 9.93117 12.1088ZM13.1332 6.54588C12.7284 6.54588 12.3992 6.21663 12.3992 5.81189C12.3992 5.40714 12.7284 5.07789 13.1332 5.07789C13.5379 5.07789 13.8672 5.40714 13.8672 5.81189C13.8672 6.21663 13.5379 6.54588 13.1332 6.54588ZM9.93117 7.21545C8.94382 7.21545 8.13986 8.01901 8.13986 9.00637C8.13986 9.99412 8.94382 10.7981 9.93117 10.7981C10.9189 10.7981 11.7225 9.99412 11.7225 9.00637C11.7225 8.01901 10.9189 7.21545 9.93117 7.21545ZM12.9154 4.29488H6.94736C5.99479 4.29488 5.21969 5.06999 5.21969 6.02256V11.9906C5.21969 12.9431 5.99479 13.7183 6.94736 13.7183H12.9154C13.868 13.7183 14.6431 12.9431 14.6431 11.9906V6.02256C14.6431 5.06999 13.868 4.29488 12.9154 4.29488ZM9.93117 12.1088C8.22089 12.1088 6.82918 10.717 6.82918 9.00637C6.82918 7.29608 8.22089 5.90438 9.93117 5.90438C11.6419 5.90438 13.0336 7.29608 13.0336 9.00637C13.0336 10.717 11.6419 12.1088 9.93117 12.1088ZM13.1332 6.54588C12.7284 6.54588 12.3992 6.21663 12.3992 5.81189C12.3992 5.40714 12.7284 5.07789 13.1332 5.07789C13.5379 5.07789 13.8672 5.40714 13.8672 5.81189C13.8672 6.21663 13.5379 6.54588 13.1332 6.54588ZM9.93117 7.21545C8.94382 7.21545 8.13986 8.01901 8.13986 9.00637C8.13986 9.99412 8.94382 10.7981 9.93117 10.7981C10.9189 10.7981 11.7225 9.99412 11.7225 9.00637C11.7225 8.01901 10.9189 7.21545 9.93117 7.21545ZM0.924805 0V18.0131H18.9379V0H0.924805ZM15.9537 11.9906C15.9537 13.6661 14.5909 15.0289 12.9154 15.0289H6.94736C5.27186 15.0289 3.90901 13.6661 3.90901 11.9906V6.02256C3.90901 4.34706 5.27186 2.9842 6.94736 2.9842H12.9154C14.5909 2.9842 15.9537 4.34706 15.9537 6.02256V11.9906ZM12.9154 4.29488H6.94736C5.99479 4.29488 5.21969 5.06999 5.21969 6.02256V11.9906C5.21969 12.9431 5.99479 13.7183 6.94736 13.7183H12.9154C13.868 13.7183 14.6431 12.9431 14.6431 11.9906V6.02256C14.6431 5.06999 13.868 4.29488 12.9154 4.29488ZM9.93117 12.1088C8.22089 12.1088 6.82918 10.717 6.82918 9.00637C6.82918 7.29608 8.22089 5.90438 9.93117 5.90438C11.6419 5.90438 13.0336 7.29608 13.0336 9.00637C13.0336 10.717 11.6419 12.1088 9.93117 12.1088ZM13.1332 6.54588C12.7284 6.54588 12.3992 6.21663 12.3992 5.81189C12.3992 5.40714 12.7284 5.07789 13.1332 5.07789C13.5379 5.07789 13.8672 5.40714 13.8672 5.81189C13.8672 6.21663 13.5379 6.54588 13.1332 6.54588ZM9.93117 7.21545C8.94382 7.21545 8.13986 8.01901 8.13986 9.00637C8.13986 9.99412 8.94382 10.7981 9.93117 10.7981C10.9189 10.7981 11.7225 9.99412 11.7225 9.00637C11.7225 8.01901 10.9189 7.21545 9.93117 7.21545ZM9.93117 7.21545C8.94382 7.21545 8.13986 8.01901 8.13986 9.00637C8.13986 9.99412 8.94382 10.7981 9.93117 10.7981C10.9189 10.7981 11.7225 9.99412 11.7225 9.00637C11.7225 8.01901 10.9189 7.21545 9.93117 7.21545ZM9.93117 7.21545C8.94382 7.21545 8.13986 8.01901 8.13986 9.00637C8.13986 9.99412 8.94382 10.7981 9.93117 10.7981C10.9189 10.7981 11.7225 9.99412 11.7225 9.00637C11.7225 8.01901 10.9189 7.21545 9.93117 7.21545ZM12.9154 4.29488H6.94736C5.99479 4.29488 5.21969 5.06999 5.21969 6.02256V11.9906C5.21969 12.9431 5.99479 13.7183 6.94736 13.7183H12.9154C13.868 13.7183 14.6431 12.9431 14.6431 11.9906V6.02256C14.6431 5.06999 13.868 4.29488 12.9154 4.29488ZM9.93117 12.1088C8.22089 12.1088 6.82918 10.717 6.82918 9.00637C6.82918 7.29608 8.22089 5.90438 9.93117 5.90438C11.6419 5.90438 13.0336 7.29608 13.0336 9.00637C13.0336 10.717 11.6419 12.1088 9.93117 12.1088ZM13.1332 6.54588C12.7284 6.54588 12.3992 6.21663 12.3992 5.81189C12.3992 5.40714 12.7284 5.07789 13.1332 5.07789C13.5379 5.07789 13.8672 5.40714 13.8672 5.81189C13.8672 6.21663 13.5379 6.54588 13.1332 6.54588ZM9.93117 7.21545C8.94382 7.21545 8.13986 8.01901 8.13986 9.00637C8.13986 9.99412 8.94382 10.7981 9.93117 10.7981C10.9189 10.7981 11.7225 9.99412 11.7225 9.00637C11.7225 8.01901 10.9189 7.21545 9.93117 7.21545ZM9.93117 7.21545C8.94382 7.21545 8.13986 8.01901 8.13986 9.00637C8.13986 9.99412 8.94382 10.7981 9.93117 10.7981C10.9189 10.7981 11.7225 9.99412 11.7225 9.00637C11.7225 8.01901 10.9189 7.21545 9.93117 7.21545ZM9.93117 7.21545C8.94382 7.21545 8.13986 8.01901 8.13986 9.00637C8.13986 9.99412 8.94382 10.7981 9.93117 10.7981C10.9189 10.7981 11.7225 9.99412 11.7225 9.00637C11.7225 8.01901 10.9189 7.21545 9.93117 7.21545ZM12.9154 4.29488H6.94736C5.99479 4.29488 5.21969 5.06999 5.21969 6.02256V11.9906C5.21969 12.9431 5.99479 13.7183 6.94736 13.7183H12.9154C13.868 13.7183 14.6431 12.9431 14.6431 11.9906V6.02256C14.6431 5.06999 13.868 4.29488 12.9154 4.29488ZM9.93117 12.1088C8.22089 12.1088 6.82918 10.717 6.82918 9.00637C6.82918 7.29608 8.22089 5.90438 9.93117 5.90438C11.6419 5.90438 13.0336 7.29608 13.0336 9.00637C13.0336 10.717 11.6419 12.1088 9.93117 12.1088ZM13.1332 6.54588C12.7284 6.54588 12.3992 6.21663 12.3992 5.81189C12.3992 5.40714 12.7284 5.07789 13.1332 5.07789C13.5379 5.07789 13.8672 5.40714 13.8672 5.81189C13.8672 6.21663 13.5379 6.54588 13.1332 6.54588ZM9.93117 7.21545C8.94382 7.21545 8.13986 8.01901 8.13986 9.00637C8.13986 9.99412 8.94382 10.7981 9.93117 10.7981C10.9189 10.7981 11.7225 9.99412 11.7225 9.00637C11.7225 8.01901 10.9189 7.21545 9.93117 7.21545Z" fill="#F8F8F8"/>
</svg>
