<svg width="19" height="19" viewBox="0 0 19 19" fill="none" xmlns="http://www.w3.org/2000/svg">
<path fill-rule="evenodd" clip-rule="evenodd" d="M0 0V18.0131H18.0131V0H0ZM5.60276 14.9648H2.93024V6.92441H5.60276V14.9648ZM4.2665 5.82699H4.24884C3.35234 5.82699 2.77125 5.20936 2.77125 4.43737C2.77125 3.64843 3.36933 3.0483 4.284 3.0483C5.19887 3.0483 5.76108 3.64843 5.77857 4.43737C5.77857 5.20936 5.19887 5.82699 4.2665 5.82699ZM15.2419 14.9648H12.5687V10.6632C12.5687 9.58275 12.1824 8.84524 11.2149 8.84524C10.476 8.84524 10.0369 9.34181 9.84348 9.82282C9.77317 9.99464 9.7548 10.2335 9.7548 10.4744V14.9649H7.08106C7.08106 14.9649 7.11689 7.67874 7.08106 6.92445H9.7548V8.06379C10.11 7.51718 10.744 6.73568 12.1641 6.73568C13.9233 6.73568 15.2419 7.88457 15.2419 10.3541V14.9648Z" fill="#F8F8F8"/>
</svg>
