<svg width="19" height="19" viewBox="0 0 19 19" fill="none" xmlns="http://www.w3.org/2000/svg">
<path d="M0.641602 0V18.0131H18.6547V0H0.641602ZM15.6054 4.26855L14.6406 5.1951C14.5556 5.25646 14.5145 5.36228 14.532 5.46473V12.2698C14.5145 12.3756 14.5556 12.478 14.6406 12.5422L15.5818 13.4688V13.6708H10.8382V13.4688L11.8142 12.5186C11.9111 12.4217 11.9111 12.3953 11.9111 12.2489V6.74592L9.19334 13.6472H8.82688L5.66333 6.74592V11.3725C5.63687 11.5661 5.7016 11.7626 5.83614 11.9033L7.10832 13.4457V13.6478H3.50513V13.4457L4.7773 11.9033C4.9124 11.7626 4.97376 11.5661 4.9383 11.3725V6.02483C4.95575 5.8751 4.8972 5.72874 4.78575 5.6291L3.65711 4.26855V4.06309H7.16348L9.87558 10.0119L12.2589 4.06309H15.6043L15.6054 4.26855Z" fill="#F8F8F8"/>
</svg>
